# Blender v2.79 (sub 0) OBJ File: ''
# www.blender.org
mtllib icsp.mtl
o Icosphere
v 0.000000 -1.000000 0.000000
v 0.723607 -0.447220 0.525725
v -0.276388 -0.447220 0.850649
v -0.894426 -0.447216 0.000000
v -0.276388 -0.447220 -0.850649
v 0.723607 -0.447220 -0.525725
v 0.276388 0.447220 0.850649
v -0.723607 0.447220 0.525725
v -0.723607 0.447220 -0.525725
v 0.276388 0.447220 -0.850649
v 0.894426 0.447216 0.000000
v 0.000000 1.000000 0.000000
v -0.162456 -0.850654 0.499995
v 0.425323 -0.850654 0.309011
v 0.262869 -0.525738 0.809012
v 0.850648 -0.525736 0.000000
v 0.425323 -0.850654 -0.309011
v -0.525730 -0.850652 0.000000
v -0.688189 -0.525736 0.499997
v -0.162456 -0.850654 -0.499995
v -0.688189 -0.525736 -0.499997
v 0.262869 -0.525738 -0.809012
v 0.951058 0.000000 0.309013
v 0.951058 0.000000 -0.309013
v 0.000000 0.000000 1.000000
v 0.587786 0.000000 0.809017
v -0.951058 0.000000 0.309013
v -0.587786 0.000000 0.809017
v -0.587786 0.000000 -0.809017
v -0.951058 0.000000 -0.309013
v 0.587786 0.000000 -0.809017
v 0.000000 0.000000 -1.000000
v 0.688189 0.525736 0.499997
v -0.262869 0.525738 0.809012
v -0.850648 0.525736 0.000000
v -0.262869 0.525738 -0.809012
v 0.688189 0.525736 -0.499997
v 0.162456 0.850654 0.499995
v 0.525730 0.850652 0.000000
v -0.425323 0.850654 0.309011
v -0.425323 0.850654 -0.309011
v 0.162456 0.850654 -0.499995
vt 0.756963 0.325734
vt 0.983535 0.259458
vt 0.857999 0.363751
vt 0.421367 0.363796
vt 0.364480 0.259458
vt 0.515002 0.357350
vt 0.784243 0.429377
vt 0.708251 0.417544
vt 0.634319 0.335277
vt 0.462274 0.453974
vt 0.282514 0.451318
vt 0.336354 0.382104
vt 0.332801 0.505771
vt 0.177241 0.536100
vt 0.226543 0.486007
vt 0.218573 0.608823
vt 0.687074 0.519570
vt 0.741897 0.524975
vt 0.703666 0.623716
vt 0.580107 0.420020
vt 0.639665 0.458868
vt 0.586366 0.528494
vt 0.394139 0.464627
vt 0.276839 0.559849
vt 0.152747 0.634369
vt 0.642328 0.582572
vt 0.528100 0.479519
vt 0.377547 0.568772
vt 0.432370 0.563367
vt 0.398723 0.670798
vt 0.270580 0.668322
vt 0.330138 0.629474
vt 0.324792 0.753066
vt 0.730894 0.724546
vt 0.824530 0.730992
vt 0.674008 0.828885
vt 0.592041 0.637024
vt 0.645881 0.706239
vt 0.548472 0.724591
vt 0.486768 0.552242
vt 0.536070 0.602335
vt 0.474716 0.658965
vt 0.447436 0.762609
vt 0.943846 0.753066
vt 0.205475 0.730992
vt 0.771801 0.634369
vt 0.796295 0.536100
vt 0.165189 0.429377
vt 0.238945 0.363751
vn 0.1024 -0.9435 0.3151
vn 0.7002 -0.6617 0.2680
vn -0.2680 -0.9435 0.1947
vn -0.2680 -0.9435 -0.1947
vn 0.1024 -0.9435 -0.3151
vn 0.9050 -0.3304 0.2680
vn 0.0247 -0.3304 0.9435
vn -0.8897 -0.3304 0.3151
vn -0.5746 -0.3304 -0.7488
vn 0.5346 -0.3304 -0.7779
vn 0.8026 -0.1256 0.5831
vn -0.3066 -0.1256 0.9435
vn -0.9921 -0.1256 0.0000
vn -0.3066 -0.1256 -0.9435
vn 0.8026 -0.1256 -0.5831
vn 0.4089 0.6617 0.6284
vn -0.4713 0.6617 0.5831
vn -0.7002 0.6617 -0.2680
vn 0.0385 0.6617 -0.7488
vn 0.7240 0.6617 -0.1947
vn 0.2680 0.9435 -0.1947
vn 0.4911 0.7947 -0.3568
vn 0.4089 0.6617 -0.6284
vn -0.1024 0.9435 -0.3151
vn -0.1876 0.7947 -0.5773
vn -0.4713 0.6617 -0.5831
vn -0.3313 0.9435 0.0000
vn -0.6071 0.7947 0.0000
vn -0.7002 0.6617 0.2680
vn -0.1024 0.9435 0.3151
vn -0.1876 0.7947 0.5773
vn 0.0385 0.6617 0.7488
vn 0.2680 0.9435 0.1947
vn 0.4911 0.7947 0.3568
vn 0.7240 0.6617 0.1947
vn 0.8897 0.3304 -0.3151
vn 0.7947 0.1876 -0.5773
vn 0.5746 0.3304 -0.7488
vn -0.0247 0.3304 -0.9435
vn -0.3035 0.1876 -0.9342
vn -0.5346 0.3304 -0.7779
vn -0.9050 0.3304 -0.2680
vn -0.9822 0.1876 0.0000
vn -0.9050 0.3304 0.2680
vn -0.5346 0.3304 0.7779
vn -0.3035 0.1876 0.9342
vn -0.0247 0.3304 0.9435
vn 0.5746 0.3304 0.7488
vn 0.7947 0.1876 0.5773
vn 0.8897 0.3304 0.3151
vn 0.3066 0.1256 -0.9435
vn 0.3035 -0.1876 -0.9342
vn 0.0247 -0.3304 -0.9435
vn -0.8026 0.1256 -0.5831
vn -0.7947 -0.1876 -0.5773
vn -0.8897 -0.3304 -0.3151
vn -0.8026 0.1256 0.5831
vn -0.7947 -0.1876 0.5773
vn -0.5746 -0.3304 0.7488
vn 0.3066 0.1256 0.9435
vn 0.3035 -0.1876 0.9342
vn 0.5346 -0.3304 0.7779
vn 0.9921 0.1256 0.0000
vn 0.9822 -0.1876 0.0000
vn 0.9050 -0.3304 -0.2680
vn 0.4713 -0.6617 -0.5831
vn 0.1876 -0.7947 -0.5773
vn -0.0385 -0.6617 -0.7488
vn -0.4089 -0.6617 -0.6284
vn -0.4911 -0.7947 -0.3568
vn -0.7240 -0.6617 -0.1947
vn -0.7240 -0.6617 0.1947
vn -0.4911 -0.7947 0.3568
vn -0.4089 -0.6617 0.6284
vn 0.7002 -0.6617 -0.2680
vn 0.6071 -0.7947 0.0000
vn 0.3313 -0.9435 0.0000
vn -0.0385 -0.6617 0.7488
vn 0.1876 -0.7947 0.5773
vn 0.4713 -0.6617 0.5831
usemtl None
s off
f 1/1/1 14/2/1 13/3/1
f 2/4/2 14/5/2 16/6/2
f 1/1/3 13/3/3 18/7/3
f 1/1/4 18/7/4 20/8/4
f 1/1/5 20/8/5 17/9/5
f 2/4/6 16/6/6 23/10/6
f 3/11/7 15/12/7 25/13/7
f 4/14/8 19/15/8 27/16/8
f 5/17/9 21/18/9 29/19/9
f 6/20/10 22/21/10 31/22/10
f 2/4/11 23/10/11 26/23/11
f 3/11/12 25/13/12 28/24/12
f 4/14/13 27/16/13 30/25/13
f 5/17/14 29/19/14 32/26/14
f 6/20/15 31/22/15 24/27/15
f 7/28/16 33/29/16 38/30/16
f 8/31/17 34/32/17 40/33/17
f 9/34/18 35/35/18 41/36/18
f 10/37/19 36/38/19 42/39/19
f 11/40/20 37/41/20 39/42/20
f 39/42/21 42/39/21 12/43/21
f 39/42/22 37/41/22 42/39/22
f 37/41/23 10/37/23 42/39/23
f 42/39/24 41/36/24 12/43/24
f 42/39/25 36/38/25 41/36/25
f 36/38/26 9/34/26 41/36/26
f 41/36/27 40/44/27 12/43/27
f 41/36/28 35/35/28 40/44/28
f 35/45/29 8/31/29 40/33/29
f 40/33/30 38/30/30 12/43/30
f 40/33/31 34/32/31 38/30/31
f 34/32/32 7/28/32 38/30/32
f 38/30/33 39/42/33 12/43/33
f 38/30/34 33/29/34 39/42/34
f 33/29/35 11/40/35 39/42/35
f 24/27/36 37/41/36 11/40/36
f 24/27/37 31/22/37 37/41/37
f 31/22/38 10/37/38 37/41/38
f 32/26/39 36/38/39 10/37/39
f 32/26/40 29/19/40 36/38/40
f 29/19/41 9/34/41 36/38/41
f 30/46/42 35/35/42 9/34/42
f 30/25/43 27/16/43 35/45/43
f 27/16/44 8/31/44 35/45/44
f 28/24/45 34/32/45 8/31/45
f 28/24/46 25/13/46 34/32/46
f 25/13/47 7/28/47 34/32/47
f 26/23/48 33/29/48 7/28/48
f 26/23/49 23/10/49 33/29/49
f 23/10/50 11/40/50 33/29/50
f 31/22/51 32/26/51 10/37/51
f 31/22/52 22/21/52 32/26/52
f 22/21/53 5/17/53 32/26/53
f 29/19/54 30/46/54 9/34/54
f 29/19/55 21/18/55 30/46/55
f 21/18/56 4/47/56 30/46/56
f 27/16/57 28/24/57 8/31/57
f 27/16/58 19/15/58 28/24/58
f 19/15/59 3/11/59 28/24/59
f 25/13/60 26/23/60 7/28/60
f 25/13/61 15/12/61 26/23/61
f 15/12/62 2/4/62 26/23/62
f 23/10/63 24/27/63 11/40/63
f 23/10/64 16/6/64 24/27/64
f 16/6/65 6/20/65 24/27/65
f 17/9/66 22/21/66 6/20/66
f 17/9/67 20/8/67 22/21/67
f 20/8/68 5/17/68 22/21/68
f 20/8/69 21/18/69 5/17/69
f 20/8/70 18/7/70 21/18/70
f 18/7/71 4/47/71 21/18/71
f 18/48/72 19/15/72 4/14/72
f 18/48/73 13/49/73 19/15/73
f 13/49/74 3/11/74 19/15/74
f 16/6/75 17/9/75 6/20/75
f 16/6/76 14/5/76 17/9/76
f 14/2/77 1/1/77 17/9/77
f 13/49/78 15/12/78 3/11/78
f 13/49/79 14/5/79 15/12/79
f 14/5/80 2/4/80 15/12/80
