# Blender v2.79 (sub 0) OBJ File: ''
# www.blender.org
mtllib spaceship.mtl
o spaceship.001
v 3.105719 0.814499 -0.526292
v 1.874568 0.499392 -1.741245
v 1.712193 0.959178 -0.389803
v 2.162277 0.754796 0.974719
v 0.749274 0.114119 -1.850828
v 0.533276 0.411541 -1.000787
v 0.172613 -0.104384 -2.638050
v -0.243760 -0.021509 -1.720904
v -0.404048 -0.322887 -3.425272
v -0.778685 -0.379946 -2.499857
v 1.005163 0.553998 0.637868
v 0.160288 0.301378 1.704368
v 0.778685 0.379946 2.499857
v 1.153322 0.437006 1.574443
v 0.619832 1.837404 -0.267811
v -0.837207 0.655072 -0.838836
v -1.153322 -0.437006 -1.574443
v -0.635183 0.816515 0.873800
v -1.211844 0.598012 0.086578
v -1.569695 -0.354130 -0.657297
v -0.172613 0.104384 2.638050
v 0.404048 0.322887 3.425272
v -0.749274 -0.114119 1.850828
v -1.367671 -0.192687 1.055339
v -1.902596 -0.551124 0.276385
vt 0.531061 0.475713
vt 0.609843 0.515718
vt 0.528725 0.547468
vt 0.449052 0.468425
vt 0.673962 0.535078
vt 0.641486 0.595697
vt 0.721171 0.549924
vt 0.746978 0.580509
vt 0.748337 0.556648
vt 0.775679 0.561781
vt 0.430502 0.505487
vt 0.301982 0.491860
vt 0.328000 0.462862
vt 0.376266 0.458264
vt 0.502193 0.749493
vt 0.821205 0.777230
vt 0.823945 0.566379
vt 0.247102 0.696856
vt 0.997063 0.750773
vt 0.101706 0.750773
vt 0.900792 0.585416
vt 0.273493 0.474718
vt 0.300658 0.467995
vt 0.226284 0.489564
vt 0.155158 0.540673
vt 0.005435 0.585416
vt 0.079264 0.543384
vn 0.0676 0.9470 -0.3141
vn 0.1133 0.9874 0.1105
vn -0.2667 0.8866 -0.3780
vn -0.2464 0.9081 -0.3386
vn -0.1539 0.9754 -0.1580
vn -0.1726 0.9152 -0.3641
vn -0.2854 0.9568 -0.0565
vn -0.3008 0.9279 -0.2204
vn -0.2280 0.9491 0.2174
vn -0.1345 0.9909 0.0067
vn -0.2123 0.9650 0.1541
vn 0.2494 0.4307 -0.8673
vn 0.5397 0.5875 0.6029
vn 0.0771 0.8155 -0.5736
vn -0.0236 0.4582 -0.8885
vn -0.4283 0.8959 -0.1181
vn -0.3838 0.5897 -0.7106
vn -0.1158 0.9832 0.1411
vn 0.2074 0.6048 0.7689
vn 0.1986 0.9067 0.3721
vn -0.5750 0.7973 -0.1836
vn -0.5320 0.8317 0.1589
vn -0.7754 0.4915 -0.3964
vn -0.7984 0.5272 -0.2907
vn -0.2619 0.9589 0.1089
vn -0.2223 0.7188 0.6587
vn -0.4089 0.9114 0.0465
vn -0.7211 0.5890 0.3648
vn -0.6736 0.5729 0.4670
vn -0.8537 0.4796 -0.2032
vn -0.7940 0.5273 0.3026
usemtl None
s off
f 1/1/1 2/2/1 3/3/1
f 3/3/2 4/4/2 1/1/2
f 2/2/3 5/5/3 6/6/3
f 6/6/4 3/3/4 2/2/4
f 5/5/5 7/7/5 8/8/5
f 8/8/6 6/6/6 5/5/6
f 7/7/7 9/9/7 10/10/7
f 10/10/8 8/8/8 7/7/8
f 4/4/9 3/3/9 11/11/9
f 12/12/10 13/13/10 14/14/10
f 11/11/11 14/14/11 4/4/11
f 3/3/12 6/6/12 15/15/12
f 15/15/13 11/11/13 3/3/13
f 6/6/14 8/8/14 16/16/14
f 16/16/15 15/15/15 6/6/15
f 8/8/16 10/10/16 17/17/16
f 17/17/17 16/16/17 8/8/17
f 14/14/18 11/11/18 12/12/18
f 11/11/19 15/15/19 18/18/19
f 18/18/20 12/12/20 11/11/20
f 15/15/21 16/16/21 19/19/21
f 19/20/22 18/18/22 15/15/22
f 16/16/23 17/17/23 20/21/23
f 20/21/24 19/19/24 16/16/24
f 13/13/25 12/12/25 21/22/25
f 21/22/7 22/23/7 13/13/7
f 12/12/26 18/18/26 23/24/26
f 23/24/27 21/22/27 12/12/27
f 18/18/28 19/20/28 24/25/28
f 24/25/29 23/24/29 18/18/29
f 19/20/30 20/26/30 25/27/30
f 25/27/31 24/25/31 19/20/31
